<?xml version="1.0" encoding="UTF-8" standalone="no"?>
<svg
   xmlns:dc="http://purl.org/dc/elements/1.1/"
   xmlns:cc="http://creativecommons.org/ns#"
   xmlns:rdf="http://www.w3.org/1999/02/22-rdf-syntax-ns#"
   xmlns:svg="http://www.w3.org/2000/svg"
   xmlns="http://www.w3.org/2000/svg"
   xmlns:sodipodi="http://sodipodi.sourceforge.net/DTD/sodipodi-0.dtd"
   xmlns:inkscape="http://www.inkscape.org/namespaces/inkscape"
   version="1.1"
   x="0px"
   y="0px"
   viewBox="0 0 53.325001 78.891998"
   enable-background="new 0 0 100 100"
   xml:space="preserve"
   id="svg3771"
   sodipodi:docname="vpn-on.svg"
   width="53.325001"
   height="78.891998"
   inkscape:version="0.92.5 (2060ec1f9f, 2020-04-08)"><metadata
     id="metadata3777"><rdf:RDF><cc:Work
         rdf:about=""><dc:format>image/svg+xml</dc:format><dc:type
           rdf:resource="http://purl.org/dc/dcmitype/StillImage" /><dc:title /></cc:Work></rdf:RDF></metadata><defs
     id="defs3775" /><sodipodi:namedview
     pagecolor="#ffffff"
     bordercolor="#666666"
     borderopacity="1"
     objecttolerance="10"
     gridtolerance="10"
     guidetolerance="10"
     inkscape:pageopacity="0"
     inkscape:pageshadow="2"
     inkscape:window-width="1920"
     inkscape:window-height="1050"
     id="namedview3773"
     showgrid="false"
     inkscape:zoom="6.8639999"
     inkscape:cx="16.674713"
     inkscape:cy="40.692986"
     inkscape:window-x="0"
     inkscape:window-y="0"
     inkscape:window-maximized="1"
     inkscape:current-layer="g3801" /><g
     id="g3801"
     transform="translate(-20.828208,-8.044706)"><path
       inkscape:connector-curvature="0"
       id="path3765"
       d="m 33.740208,33.003706 c 1.381,0 2.5,-1.119 2.5,-2.5 v -8.659 c 0,-4.136 3.364,-7.5 7.5,-7.5 h 7.5 c 4.136,0 7.5,3.364 7.5,7.5 v 8.659 c 0,1.381 1.119,2.5 2.5,2.5 1.381,0 2.5,-1.119 2.5,-2.5 v -8.659 c 0,-6.893 -5.607,-12.5 -12.5,-12.5 h -7.5 c -6.893,0 -12.5,5.607 -12.5,12.5 v 8.659 c 0,1.381 1.119,2.5 2.5,2.5 z m 9.083,21.767 c 0,1.546 0.76,2.905 1.917,3.755 v 7.202 c 0,1.518 1.231,2.75 2.75,2.75 1.519,0 2.75,-1.232 2.75,-2.75 v -7.202 c 1.157,-0.85 1.917,-2.209 1.917,-3.755 0,-2.576 -2.09,-4.666 -4.667,-4.666 -2.577,0 -4.667,2.09 -4.667,4.666 z m 28.897,-11.172 c -7.148,-5.226 -15.725167,-7.986948 -24.229,-7.987 -8.50415,-5.2e-5 -17.08,2.762 -24.23,7.987 l -1.096,0.802 0.075,1.355 c 1.267,22.736 12.122,39.880998 25.251,39.880998 13.13,0 23.984,-17.144998 25.25,-39.880998 l 0.075,-1.355 z m -24.23,37.037998 c -10.022,0 -18.744,-14.728998 -20.169,-33.782998 6.036,-4.089 12.979,-6.242 20.169,-6.242 7.19,0 14.133,2.153 20.168,6.242 -1.424,19.053 -10.145,33.782998 -20.168,33.782998 z"
       sodipodi:nodetypes="sssssssssssssssscssscssscacccscccscscs"
       style="stroke:#000000;stroke-width:2.5999999;stroke-miterlimit:4;stroke-dasharray:none;stroke-opacity:1" /></g></svg>